<svg width="28" height="28" viewBox="0 0 28 28" fill="none" xmlns="http://www.w3.org/2000/svg">
<path d="M10.6667 6.66663V10.6666H6.66666V6.66663H10.6667ZM12.6667 4.66663H4.66666V12.6666H12.6667V4.66663ZM10.6667 17.3333V21.3333H6.66666V17.3333H10.6667ZM12.6667 15.3333H4.66666V23.3333H12.6667V15.3333ZM21.3333 6.66663V10.6666H17.3333V6.66663H21.3333ZM23.3333 4.66663H15.3333V12.6666H23.3333V4.66663ZM15.3333 15.3333H17.3333V17.3333H15.3333V15.3333ZM17.3333 17.3333H19.3333V19.3333H17.3333V17.3333ZM19.3333 15.3333H21.3333V17.3333H19.3333V15.3333ZM15.3333 19.3333H17.3333V21.3333H15.3333V19.3333ZM17.3333 21.3333H19.3333V23.3333H17.3333V21.3333ZM19.3333 19.3333H21.3333V21.3333H19.3333V19.3333ZM21.3333 17.3333H23.3333V19.3333H21.3333V17.3333ZM21.3333 21.3333H23.3333V23.3333H21.3333V21.3333ZM27.3333 7.33329H24.6667V3.33329H20.6667V0.666626H27.3333V7.33329ZM27.3333 27.3333V20.6666H24.6667V24.6666H20.6667V27.3333H27.3333ZM0.666656 27.3333H7.33332V24.6666H3.33332V20.6666H0.666656V27.3333ZM0.666656 0.666626V7.33329H3.33332V3.33329H7.33332V0.666626H0.666656Z" fill="#A0A0A0"/>
</svg>
